<?xml version="1.0" encoding="utf-8"?>
<!-- Generator: Adobe Illustrator 15.1.0, SVG Export Plug-In . SVG Version: 6.00 Build 0)  -->
<!DOCTYPE svg PUBLIC "-//W3C//DTD SVG 1.1//EN" "http://www.w3.org/Graphics/SVG/1.1/DTD/svg11.dtd">
<svg version="1.1" id="Layer_1" xmlns="http://www.w3.org/2000/svg" xmlns:xlink="http://www.w3.org/1999/xlink" x="0px" y="0px"
	 width="701.977px" height="75.083px" viewBox="133.235 443.427 701.977 75.083"
	 enable-background="new 133.235 443.427 701.977 75.083" xml:space="preserve">
<path fill="#241916" d="M197.23,480.714c11.416,11.516,2.446,36.992-27.001,36.992c-23.542,0-36.994-18.75-36.994-36.992
	c0-18.238,13.451-36.99,36.994-36.99C199.677,443.723,208.646,469.202,197.23,480.714"/>
<path fill="#241916" d="M744.988,480.714c11.415,11.516,2.446,36.992-27.005,36.992c-23.541,0-36.992-18.75-36.992-36.992
	c0-18.238,13.451-36.99,36.992-36.99C747.435,443.723,756.403,469.202,744.988,480.714"/>
<path fill="#241916" d="M509.749,494.401l-18.262-40.08c-2.651-6.225-8.731-9.928-15.1-9.863c-6.367-0.064-12.45,3.639-15.099,9.863
	l-18.264,40.08c-3.751,8.801,0.342,18.973,9.14,22.719c7.781,3.318,19.114,0.486,24.222-6.299c5.107,6.785,16.438,9.617,24.22,6.299
	C509.405,513.374,513.501,503.202,509.749,494.401z"/>
<path fill="#241916" d="M305.693,461.028c0-8.963,7.266-16.225,16.227-16.225c8.96,0,16.226,7.262,16.226,16.225v39.375
	c0,8.963-7.266,16.225-16.226,16.225c-8.961,0-16.227-7.262-16.227-16.225V461.028L305.693,461.028z"/>
<path fill="#241916" d="M571.948,444.803c-5.877,0-11.012,3.137-13.857,7.816c-4.643-4.5-11.51-7.816-18.595-7.816
	c-8.96,0-16.224,7.262-16.224,16.225v39.375c0,8.963,7.264,16.225,16.224,16.225c5.88,0,11.015-3.137,13.86-7.818
	c4.641,4.5,11.506,7.818,18.592,7.818c8.959,0,16.225-7.262,16.225-16.225v-39.375C588.173,452.065,580.907,444.803,571.948,444.803
	z"/>
<path fill="#241916" d="M602.021,494.401l18.265-40.08c2.649-6.225,8.729-9.928,15.097-9.863c6.369-0.064,12.45,3.639,15.1,9.863
	l18.262,40.08c3.752,8.801-0.342,18.973-9.139,22.719c-7.781,3.318-19.115,0.486-24.221-6.299
	c-5.109,6.785-16.439,9.617-24.223,6.299C602.366,513.374,598.27,503.202,602.021,494.401z"/>
<path fill="#241916" d="M269.484,444.803c-8.961,0-16.227,7.262-16.227,16.225c0-8.963-7.262-16.225-16.224-16.225
	c-8.961,0-16.224,7.262-16.224,16.225v39.375c0,8.963,7.263,16.225,16.224,16.225c8.962,0,16.224-7.262,16.224-16.225
	c0,8.963,7.266,16.225,16.227,16.225c8.959,0,16.225-7.262,16.225-16.225v-39.375C285.708,452.065,278.443,444.803,269.484,444.803z
	"/>
<path fill="#241916" d="M835.212,480.417c0,20.432-16.564,36.992-36.99,36.992c-20.43,0-36.995-16.561-36.995-36.992
	c-0.001-20.426,16.563-36.99,36.993-36.99C818.647,443.427,835.212,459.991,835.212,480.417z"/>
<path fill="#241916" d="M412.953,444.803c-9.885-0.803-15.693,3.248-19.299,9.969c-3.607-6.721-9.416-10.771-19.299-9.969
	c-9.797,0.789-16.227,7.262-16.227,16.225v39.375c0,8.963,7.266,16.225,16.227,16.225c4.545,0,8.646-1.875,11.592-4.885
	c2.026,1.873,4.727,3.027,7.705,3.027s5.68-1.154,7.705-3.027c2.947,3.01,7.049,4.885,11.596,4.885
	c8.958,0,16.223-7.262,16.223-16.225v-39.375C429.178,452.065,422.747,445.593,412.953,444.803z"/>
</svg>
